<svg width="761" height="536" viewBox="0 0 761 536" fill="none" xmlns="http://www.w3.org/2000/svg">
<path d="M577.778 400.378H324.758C324.501 400.378 324.254 400.161 324.072 399.776C323.891 399.39 323.789 398.868 323.789 398.323C323.789 397.778 323.891 397.255 324.072 396.87C324.254 396.484 324.501 396.268 324.758 396.268H577.778C578.035 396.268 578.282 396.484 578.464 396.87C578.646 397.255 578.748 397.778 578.748 398.323C578.748 398.868 578.646 399.39 578.464 399.776C578.282 400.161 578.035 400.378 577.778 400.378Z" fill="#CACACA"/>
<path d="M449.023 9.31994L449.026 9.31453C449.34 8.672 449.698 8.26575 450.035 8.06921C450.347 7.88687 450.646 7.87857 450.948 8.02869C451.277 8.19224 451.636 8.56013 451.959 9.17286C452.276 9.77197 452.526 10.5468 452.677 11.433L454.322 54.8389H453.993L454.404 55.5813C464.179 73.2107 471.046 97.0447 473.98 123.596C476.913 150.145 475.756 177.986 470.68 203.033C465.604 228.087 456.881 248.988 445.826 262.699C434.773 276.405 422.035 282.141 409.471 279.297C396.868 276.444 384.924 265.073 375.454 246.667C365.992 228.275 359.546 203.914 357.079 177.15C354.613 150.388 356.257 122.657 361.766 98.0286C367.278 73.3922 376.359 53.1978 387.64 40.3733L387.693 40.3129L387.725 40.2389L404.104 1.76405C404.426 1.14945 404.785 0.778133 405.115 0.611657C405.42 0.457633 405.722 0.465397 406.037 0.649899C406.377 0.849041 406.738 1.26172 407.053 1.91414C407.362 2.55238 407.598 3.3616 407.731 4.27143L408.243 47.5698L408.251 48.2043L408.866 48.0485C415.263 46.4285 421.744 47.0439 428.062 49.8826L428.498 50.0786L428.714 49.6514L449.023 9.31994Z" fill="#2B9348" stroke="#2B9348"/>
<path d="M462.288 234.215L462.337 234.223L462.387 234.222C463.61 234.18 464.903 234.708 466.256 235.829C467.61 236.95 468.988 238.636 470.364 240.832C473.116 245.223 475.805 251.566 478.256 259.236C483.157 274.571 487.076 295.113 488.662 315.713C490.25 336.319 489.499 356.933 485.094 372.428C480.681 387.946 472.679 398.121 459.884 398.329C446.239 398.551 427.365 401.48 411.926 404.346C404.202 405.781 397.328 407.201 392.386 408.263C389.914 408.794 387.926 409.235 386.554 409.544C385.869 409.698 385.338 409.819 384.978 409.902C384.944 409.909 384.912 409.917 384.882 409.924C384.814 409.702 384.721 409.398 384.604 409.015C384.335 408.126 383.941 406.813 383.446 405.114C382.457 401.717 381.061 396.781 379.438 390.625C376.192 378.313 372.038 361.126 368.405 341.626C361.166 302.769 356.013 254.804 364.19 217.93L462.288 234.215Z" fill="#2B9348" stroke="#2B9348"/>
<path d="M413.58 320.917V406.405H432.435L447.395 319.358" fill="#2B9348"/>
<path d="M413.815 404.847V405.347H414.315H431.921H432.342L432.414 404.932L447.197 318.91L446.705 318.825L447.197 318.91C447.246 318.63 447.328 318.446 447.395 318.351C447.449 318.428 447.522 318.573 447.573 318.808C447.641 319.117 447.649 319.481 447.593 319.807L432.633 406.854C432.589 407.109 432.514 407.296 432.442 407.402C432.421 407.434 432.404 407.453 432.393 407.463H413.622C413.598 407.44 413.557 407.389 413.512 407.294C413.413 407.084 413.345 406.765 413.345 406.405V320.917C413.345 320.558 413.413 320.238 413.512 320.028C413.536 319.977 413.56 319.938 413.58 319.91C413.6 319.938 413.623 319.977 413.647 320.028C413.746 320.238 413.815 320.558 413.815 320.917V404.847Z" fill="#2B9348" stroke="white"/>
<path d="M462.465 412.074C470.991 412.074 477.903 407.19 477.903 401.166C477.903 395.142 470.991 390.258 462.465 390.258C453.939 390.258 447.028 395.142 447.028 401.166C447.028 407.19 453.939 412.074 462.465 412.074Z" fill="#2B9348"/>
<path d="M454.746 391.817C454.589 391.817 454.436 391.71 454.31 391.512C454.183 391.314 454.09 391.035 454.044 390.717C453.963 390.157 446.154 334.644 464.655 317.925C464.744 317.844 464.839 317.801 464.936 317.798C465.033 317.796 465.129 317.834 465.219 317.91C465.308 317.986 465.39 318.099 465.459 318.243C465.529 318.386 465.584 318.557 465.622 318.746C465.66 318.934 465.679 319.137 465.68 319.342C465.681 319.547 465.663 319.751 465.627 319.941C465.591 320.131 465.537 320.304 465.469 320.45C465.401 320.596 465.32 320.712 465.231 320.792C447.934 336.422 455.372 389.269 455.449 389.8C455.507 390.195 455.488 390.623 455.396 390.988C455.305 391.353 455.149 391.627 454.963 391.748C454.893 391.794 454.82 391.817 454.746 391.817V391.817Z" fill="white"/>
<path d="M480.933 377.575C480.83 377.26 480.754 376.929 480.665 376.607C479.861 376.669 479.058 376.732 478.255 376.795L480.933 377.575Z" fill="#3F3D56"/>
<path d="M521.451 341.023L521.452 341.022C522.68 338.205 523.819 335.189 524.952 332.189C525.427 330.931 525.901 329.676 526.38 328.439C528.008 324.239 529.697 320.246 531.705 316.992C533.921 313.401 536.462 311.099 539.088 309.946C541.706 308.797 544.443 308.772 547.105 309.796C552.457 311.855 557.573 318.193 560.563 328.322C563.548 338.435 564.045 351.098 562.527 362.584C561.007 374.091 557.48 384.298 552.52 389.58C547.439 394.99 541.572 395.551 535.729 396.008L475.223 400.734C473.933 395.757 474.219 389.87 475.472 384.582C476.761 379.14 479.05 374.431 481.594 372.028L481.25 371.664L481.594 372.028C484.229 369.537 487.056 368.531 489.989 367.917C491.056 367.694 492.125 367.524 493.209 367.353C493.625 367.287 494.044 367.22 494.466 367.15C495.974 366.9 497.501 366.607 499.013 366.127L499.016 366.126C507.703 363.306 515.582 354.398 521.451 341.023Z" fill="#2B9348" stroke="white"/>
<path d="M411.127 269.111C402.786 269.273 394.519 265.776 386.846 258.841C370.826 244.101 363.484 219.226 363.179 218.175C363.079 217.823 363.048 217.401 363.094 217.002C363.14 216.602 363.258 216.257 363.423 216.042C363.589 215.826 363.787 215.758 363.976 215.852C364.165 215.946 364.329 216.194 364.432 216.543C370.235 234.014 378.227 247.698 387.506 256.05C401.932 269.271 426.567 275.895 462.002 232.374C462.085 232.27 462.178 232.203 462.273 232.175C462.369 232.148 462.467 232.16 462.56 232.213C462.654 232.265 462.742 232.356 462.818 232.481C462.895 232.605 462.96 232.761 463.008 232.938C463.057 233.115 463.088 233.311 463.101 233.515C463.114 233.718 463.107 233.925 463.082 234.123C463.057 234.321 463.014 234.506 462.955 234.669C462.896 234.832 462.823 234.968 462.739 235.07C441.938 260.618 424.764 269.111 411.127 269.111Z" fill="white"/>
<path d="M414.315 190.025C412.95 190.022 411.642 188.872 410.678 186.827C409.713 184.782 409.17 182.009 409.169 179.118C409.169 178.704 409.246 178.308 409.384 178.016C409.522 177.723 409.709 177.559 409.904 177.559C410.099 177.559 410.286 177.723 410.424 178.016C410.562 178.308 410.639 178.704 410.639 179.118C410.639 181.184 411.026 183.166 411.716 184.627C412.405 186.088 413.34 186.909 414.315 186.909C415.29 186.909 416.224 186.088 416.914 184.627C417.603 183.166 417.99 181.184 417.99 179.118C417.99 178.704 418.068 178.308 418.206 178.016C418.344 177.723 418.531 177.559 418.726 177.559C418.92 177.559 419.107 177.723 419.245 178.016C419.383 178.308 419.461 178.704 419.461 179.118C419.459 182.009 418.916 184.782 417.952 186.827C416.987 188.872 415.679 190.022 414.315 190.025Z" fill="white"/>
<path d="M407.331 401.43C407.175 401.43 407.023 401.325 406.897 401.129C406.771 400.934 406.678 400.659 406.631 400.344L394.869 322.169C394.839 321.974 394.828 321.768 394.836 321.564C394.844 321.36 394.87 321.161 394.915 320.978C394.959 320.796 395.02 320.634 395.093 320.501C395.167 320.369 395.253 320.269 395.345 320.206C395.437 320.144 395.534 320.121 395.631 320.138C395.727 320.156 395.821 320.213 395.907 320.308C395.993 320.402 396.069 320.532 396.131 320.689C396.193 320.846 396.24 321.027 396.269 321.223L408.031 399.398C408.066 399.631 408.075 399.879 408.056 400.121C408.038 400.363 407.992 400.592 407.924 400.79C407.856 400.988 407.767 401.149 407.664 401.26C407.56 401.372 407.447 401.43 407.331 401.43V401.43Z" fill="white"/>
<path d="M437.706 412.074C437.706 414.88 436.097 417.47 433.396 419.378C430.696 421.286 426.941 422.481 422.769 422.481C418.597 422.481 414.841 421.286 412.141 419.378C409.44 417.47 407.831 414.88 407.831 412.074C407.831 409.267 409.44 406.678 412.141 404.769C414.841 402.862 418.597 401.666 422.769 401.666C426.941 401.666 430.696 402.862 433.396 404.769C436.097 406.678 437.706 409.267 437.706 412.074Z" fill="#2B9348" stroke="white"/>
<path d="M412.712 410.516C412.712 413.322 411.103 415.912 408.402 417.82C405.702 419.728 401.946 420.923 397.774 420.923C393.602 420.923 389.847 419.728 387.147 417.82C384.446 415.912 382.837 413.322 382.837 410.516C382.837 407.709 384.446 405.119 387.147 403.211C389.847 401.303 393.602 400.108 397.774 400.108C401.946 400.108 405.702 401.303 408.402 403.211C411.103 405.119 412.712 407.709 412.712 410.516Z" fill="#2B9348" stroke="white"/>
<path d="M414.682 164.434C417.93 164.434 420.563 162.288 420.563 159.64C420.563 156.992 417.93 154.845 414.682 154.845C411.434 154.845 408.801 156.992 408.801 159.64C408.801 162.288 411.434 164.434 414.682 164.434Z" fill="white"/>
<path d="M375.139 159.991C376.821 155.721 378.926 152.285 381.304 149.928C383.682 147.571 386.275 146.349 388.9 146.349C391.525 146.349 394.118 147.571 396.496 149.928C398.874 152.285 400.979 155.721 402.662 159.991C405.513 154.222 407.493 146.79 408.351 138.635C409.21 130.481 408.908 121.97 407.485 114.178C406.061 106.387 403.58 99.6653 400.354 94.8635C397.128 90.0617 393.303 87.3952 389.363 87.2014C385.422 87.0075 381.543 89.295 378.215 93.7745C374.888 98.2539 372.262 104.724 370.67 112.367C369.077 120.01 368.589 128.482 369.269 136.713C369.948 144.943 371.763 152.562 374.485 158.605C374.698 159.078 374.915 159.54 375.139 159.991Z" fill="white"/>
<path d="M428.949 159.991C430.631 155.721 432.736 152.285 435.114 149.928C437.492 147.571 440.085 146.349 442.71 146.349C445.335 146.349 447.928 147.571 450.306 149.928C452.684 152.285 454.789 155.721 456.472 159.991C459.323 154.222 461.303 146.79 462.161 138.635C463.02 130.481 462.718 121.97 461.295 114.178C459.871 106.387 457.39 99.6654 454.164 94.8636C450.938 90.0617 447.113 87.3952 443.173 87.2014C439.232 87.0075 435.353 89.295 432.025 93.7745C428.698 98.2539 426.072 104.724 424.479 112.367C422.887 120.01 422.399 128.482 423.079 136.713C423.758 144.943 425.573 152.562 428.295 158.605C428.508 159.078 428.726 159.54 428.949 159.991Z" fill="white"/>
<path d="M380.163 148.075C383.949 148.075 387.018 141.569 387.018 133.544C387.018 125.518 383.949 119.012 380.163 119.012C376.376 119.012 373.307 125.518 373.307 133.544C373.307 141.569 376.376 148.075 380.163 148.075Z" fill="#3F3D56"/>
<path d="M433.971 148.075C437.757 148.075 440.826 141.569 440.826 133.544C440.826 125.518 437.757 119.012 433.971 119.012C430.185 119.012 427.115 125.518 427.115 133.544C427.115 141.569 430.185 148.075 433.971 148.075Z" fill="#3F3D56"/>
<path d="M443.352 190.743C446.67 190.743 449.359 185.042 449.359 178.009C449.359 170.977 446.67 165.275 443.352 165.275C440.034 165.275 437.344 170.977 437.344 178.009C437.344 185.042 440.034 190.743 443.352 190.743Z" fill="white"/>
<path d="M389.064 190.743C392.382 190.743 395.071 185.042 395.071 178.009C395.071 170.977 392.382 165.275 389.064 165.275C385.746 165.275 383.057 170.977 383.057 178.009C383.057 185.042 385.746 190.743 389.064 190.743Z" fill="white"/>
</svg>
