<svg width="761" height="536" viewBox="0 0 761 536" fill="none" xmlns="http://www.w3.org/2000/svg">
<path d="M449.023 9.31994L449.026 9.31453C449.34 8.672 449.698 8.26575 450.035 8.06921C450.347 7.88687 450.646 7.87857 450.948 8.02869C451.277 8.19224 451.636 8.56013 451.959 9.17286C452.276 9.77197 452.526 10.5468 452.677 11.433L454.322 54.8389H453.993L454.404 55.5813C464.179 73.2107 471.046 97.0447 473.98 123.596C476.913 150.145 475.756 177.986 470.68 203.033C465.604 228.087 456.881 248.988 445.826 262.699C434.773 276.405 422.035 282.141 409.471 279.297C396.868 276.444 384.924 265.073 375.454 246.667C365.992 228.275 359.546 203.914 357.079 177.15C354.613 150.388 356.257 122.657 361.766 98.0286C367.278 73.3922 376.359 53.1978 387.64 40.3733L387.693 40.3129L387.725 40.2389L404.104 1.76405C404.426 1.14945 404.785 0.778133 405.115 0.611657C405.42 0.457633 405.722 0.465397 406.037 0.649899C406.377 0.849041 406.738 1.26172 407.053 1.91414C407.362 2.55238 407.598 3.3616 407.731 4.27143L408.243 47.5698L408.251 48.2043L408.866 48.0485C415.263 46.4285 421.744 47.0439 428.062 49.8826L428.498 50.0786L428.714 49.6514L449.023 9.31994Z" fill="#2B9348" stroke="#2B9348"/>
<path d="M414.315 190.025C412.95 190.022 411.642 188.872 410.678 186.827C409.713 184.782 409.17 182.009 409.169 179.118C409.169 178.704 409.246 178.308 409.384 178.016C409.522 177.723 409.709 177.559 409.904 177.559C410.099 177.559 410.286 177.723 410.424 178.016C410.562 178.308 410.639 178.704 410.639 179.118C410.639 181.184 411.026 183.166 411.716 184.627C412.405 186.088 413.34 186.909 414.315 186.909C415.29 186.909 416.224 186.088 416.914 184.627C417.603 183.166 417.99 181.184 417.99 179.118C417.99 178.704 418.068 178.308 418.206 178.016C418.344 177.723 418.531 177.559 418.726 177.559C418.92 177.559 419.107 177.723 419.245 178.016C419.383 178.308 419.461 178.704 419.461 179.118C419.459 182.009 418.916 184.782 417.952 186.827C416.987 188.872 415.679 190.022 414.315 190.025Z" fill="white"/>
<path d="M414.682 164.434C417.93 164.434 420.563 162.288 420.563 159.64C420.563 156.992 417.93 154.845 414.682 154.845C411.434 154.845 408.801 156.992 408.801 159.64C408.801 162.288 411.434 164.434 414.682 164.434Z" fill="white"/>
<path d="M375.139 159.991C376.821 155.721 378.926 152.285 381.304 149.928C383.682 147.571 386.275 146.349 388.9 146.349C391.525 146.349 394.118 147.571 396.496 149.928C398.874 152.285 400.979 155.721 402.662 159.991C405.513 154.222 407.493 146.79 408.351 138.635C409.21 130.481 408.908 121.97 407.485 114.178C406.061 106.387 403.58 99.6653 400.354 94.8635C397.128 90.0617 393.303 87.3952 389.363 87.2014C385.422 87.0075 381.543 89.295 378.215 93.7745C374.888 98.2539 372.262 104.724 370.67 112.367C369.077 120.01 368.589 128.482 369.269 136.713C369.948 144.943 371.763 152.562 374.485 158.605C374.698 159.078 374.915 159.54 375.139 159.991Z" fill="white"/>
<path d="M428.949 159.991C430.631 155.721 432.736 152.285 435.114 149.928C437.492 147.571 440.085 146.349 442.71 146.349C445.335 146.349 447.928 147.571 450.306 149.928C452.684 152.285 454.789 155.721 456.472 159.991C459.323 154.222 461.303 146.79 462.161 138.635C463.02 130.481 462.718 121.97 461.295 114.178C459.871 106.387 457.39 99.6654 454.164 94.8636C450.938 90.0617 447.113 87.3952 443.173 87.2014C439.232 87.0075 435.353 89.295 432.025 93.7745C428.698 98.2539 426.072 104.724 424.479 112.367C422.887 120.01 422.399 128.482 423.079 136.713C423.758 144.943 425.573 152.562 428.295 158.605C428.508 159.078 428.726 159.54 428.949 159.991Z" fill="white"/>
<path d="M380.163 148.075C383.949 148.075 387.018 141.569 387.018 133.544C387.018 125.518 383.949 119.012 380.163 119.012C376.376 119.012 373.307 125.518 373.307 133.544C373.307 141.569 376.376 148.075 380.163 148.075Z" fill="#3F3D56"/>
<path d="M433.971 148.075C437.757 148.075 440.826 141.569 440.826 133.544C440.826 125.518 437.757 119.012 433.971 119.012C430.185 119.012 427.115 125.518 427.115 133.544C427.115 141.569 430.185 148.075 433.971 148.075Z" fill="#3F3D56"/>
<path d="M443.352 190.743C446.67 190.743 449.359 185.042 449.359 178.009C449.359 170.977 446.67 165.275 443.352 165.275C440.034 165.275 437.344 170.977 437.344 178.009C437.344 185.042 440.034 190.743 443.352 190.743Z" fill="white"/>
<path d="M389.064 190.743C392.382 190.743 395.071 185.042 395.071 178.009C395.071 170.977 392.382 165.275 389.064 165.275C385.746 165.275 383.057 170.977 383.057 178.009C383.057 185.042 385.746 190.743 389.064 190.743Z" fill="white"/>
</svg>
